<?xml version="1.0" encoding="utf-8"?>
<!-- Generator: Adobe Illustrator 26.0.1, SVG Export Plug-In . SVG Version: 6.00 Build 0)  -->
<svg version="1.1" id="Layer_1" xmlns="http://www.w3.org/2000/svg" xmlns:xlink="http://www.w3.org/1999/xlink" x="0px" y="0px"
	 viewBox="0 0 1024 1024" style="enable-background:new 0 0 1024 1024;" xml:space="preserve">
<style type="text/css">
	.st0{fill:url(#SVGID_1_);}
	.st1{fill:url(#SVGID_00000001633405801201095680000002117068752795723688_);}
	.st2{fill:url(#SVGID_00000049207096392951955020000010877461586033327788_);}
	.st3{fill:url(#SVGID_00000149373618051094123270000002859519110414478977_);}
	.st4{fill:#FFFAFA;}
	.st5{fill:#FFFFFF;}
	.st6{fill:url(#SVGID_00000152249258428760351820000017350177018190535043_);}
	.st7{fill:url(#SVGID_00000180355228381983925270000007931864378897652615_);}
	.st8{fill:url(#SVGID_00000078038737332674789880000003779893488438079420_);}
	.st9{fill:url(#SVGID_00000076591988349587392470000005611272760639392646_);}
	.st10{fill:url(#SVGID_00000142141373759154210880000015182984053200162198_);}
</style>
<g>
	<linearGradient id="SVGID_1_" gradientUnits="userSpaceOnUse" x1="512" y1="0" x2="512" y2="1024">
		<stop  offset="0" style="stop-color:#FFBDA4"/>
		<stop  offset="1" style="stop-color:#FF7B99"/>
	</linearGradient>
	<rect class="st0" width="1024" height="1024"/>
	<g>
		
			<linearGradient id="SVGID_00000062873656884765618300000016581456686778832538_" gradientUnits="userSpaceOnUse" x1="512" y1="-5.275069e-11" x2="512" y2="1024">
			<stop  offset="2.770450e-07" style="stop-color:#FFFFFF;stop-opacity:0.1"/>
			<stop  offset="1" style="stop-color:#FF7B99;stop-opacity:0.2"/>
		</linearGradient>
		<path style="fill:url(#SVGID_00000062873656884765618300000016581456686778832538_);" d="M1024,611.33V1024H0V0h289.07
			c-5.43,57.49-26.76,131.9-83.9,217.99c-137.4,206.99,0,302.25,0,302.25s95.71,93.44,85.4,157.56
			c-10.31,64.09,103.27,95.26,187.55,34.8C557.57,655.58,764.11,476.4,1024,611.33z"/>
		
			<linearGradient id="SVGID_00000103264878198213612480000003928439025410611610_" gradientUnits="userSpaceOnUse" x1="588.0878" y1="157.5449" x2="1023.9999" y2="157.5449">
			<stop  offset="2.770450e-07" style="stop-color:#FFFFFF;stop-opacity:0.2"/>
			<stop  offset="1" style="stop-color:#FF7B99;stop-opacity:0.3"/>
		</linearGradient>
		<path style="fill:url(#SVGID_00000103264878198213612480000003928439025410611610_);" d="M1024,0v312.36
			c-15.04,1.79-30.33,2.73-45.8,2.73C792.21,315.09,635.54,181.71,588.09,0H1024z"/>
		
			<linearGradient id="SVGID_00000132072156798171117990000013047754203457639567_" gradientUnits="userSpaceOnUse" x1="-0.3766" y1="1023.6233" x2="235.9826" y2="787.264">
			<stop  offset="0" style="stop-color:#FF7B99;stop-opacity:0.2"/>
			<stop  offset="1" style="stop-color:#FFFFFF;stop-opacity:0.1"/>
		</linearGradient>
		<path style="fill:url(#SVGID_00000132072156798171117990000013047754203457639567_);" d="M303.25,941.61
			c0,29.15-6.03,56.97-16.98,82.39H0V736.22c23.53-7.84,48.84-12.1,75.17-12.1C201.13,724.12,303.25,821.48,303.25,941.61z"/>
	</g>
	<g>
		<path class="st4" d="M834.93,512.01c0,16.69-1.28,33.09-3.72,49.13c-21.19,138.89-130.89,248.67-269.74,270.01
			c-8.61,1.33-17.35,2.32-26.18,2.93c-7.68,0.56-15.46,0.84-23.28,0.84c-161.65,0-295.57-118.76-319.2-273.78
			c-2.46-16.04-3.72-32.44-3.72-49.13c0-26.53,3.19-52.34,9.26-76.97C232.86,293.83,360.18,189.09,512,189.09
			c82.64,0,158.03,31.04,215.14,82.11c38.14,34.09,68.13,77.13,86.67,125.8c4.7,12.33,8.67,25.04,11.84,38.04
			C831.72,459.67,834.93,485.48,834.93,512.01z"/>
		<path class="st5" d="M766.68,451.76c0,22.28-1.7,44.2-4.97,65.64c-21.04,137.87-107.36,254.27-226.42,316.68
			c-7.68,0.56-15.46,0.84-23.28,0.84c-161.65,0-295.57-118.76-319.2-273.78c-2.46-16.04-3.72-32.44-3.72-49.13
			c0-26.53,3.19-52.34,9.26-76.97C232.86,293.83,360.18,189.09,512,189.09c82.64,0,158.03,31.04,215.14,82.11
			c4.09,8.81,7.86,17.77,11.33,26.9c6.28,16.48,11.58,33.44,15.83,50.81C762.39,381.82,766.68,416.32,766.68,451.76z"/>
		<g>
			<g>
				
					<linearGradient id="SVGID_00000030445299166542639020000013505358117637437835_" gradientUnits="userSpaceOnUse" x1="347.0242" y1="127.8262" x2="347.0242" y2="608.2775">
					<stop  offset="0" style="stop-color:#FFBDA4"/>
					<stop  offset="1" style="stop-color:#FF7B99"/>
				</linearGradient>
				<path style="fill:url(#SVGID_00000030445299166542639020000013505358117637437835_);" d="M393.28,361.39
					c-11.24,3.76-21.96,7.33-32.73,12.88c-18.24,9.5-44.67,32.91-56.09,43.35c-2.96,2.77-7.81,0.61-7.76-3.43
					c0.24-28.35,56.61-79.13,96.62-64.18C398.69,352.03,398.69,359.56,393.28,361.39z"/>
				<g>
					
						<linearGradient id="SVGID_00000027581256731652055740000016397902675493296262_" gradientUnits="userSpaceOnUse" x1="384.1509" y1="378.2396" x2="384.1509" y2="553.8517">
						<stop  offset="0" style="stop-color:#FFBDA4"/>
						<stop  offset="1" style="stop-color:#FF7B99"/>
					</linearGradient>
					
						<ellipse style="fill:url(#SVGID_00000027581256731652055740000016397902675493296262_);" cx="384.15" cy="469.93" rx="48.91" ry="52.82"/>
					<ellipse class="st5" cx="384.15" cy="469.93" rx="19.21" ry="21.01"/>
				</g>
			</g>
			<g>
				
					<linearGradient id="SVGID_00000161609657331774196520000015536497947221409206_" gradientUnits="userSpaceOnUse" x1="-5344.7617" y1="127.8262" x2="-5344.7617" y2="608.2775" gradientTransform="matrix(-1 0 0 1 -4667.7852 0)">
					<stop  offset="0" style="stop-color:#FFBDA4"/>
					<stop  offset="1" style="stop-color:#FF7B99"/>
				</linearGradient>
				<path style="fill:url(#SVGID_00000161609657331774196520000015536497947221409206_);" d="M630.72,361.39
					c11.24,3.76,21.96,7.33,32.73,12.88c18.24,9.5,44.67,32.91,56.09,43.35c2.96,2.77,7.81,0.61,7.76-3.43
					c-0.24-28.35-56.61-79.13-96.62-64.18C625.31,352.03,625.31,359.56,630.72,361.39z"/>
				<g>
					
						<linearGradient id="SVGID_00000140732107741400348290000006005879881653009292_" gradientUnits="userSpaceOnUse" x1="-5307.6353" y1="378.2396" x2="-5307.6353" y2="553.8517" gradientTransform="matrix(-1 0 0 1 -4667.7852 0)">
						<stop  offset="0" style="stop-color:#FFBDA4"/>
						<stop  offset="1" style="stop-color:#FF7B99"/>
					</linearGradient>
					
						<ellipse style="fill:url(#SVGID_00000140732107741400348290000006005879881653009292_);" cx="639.85" cy="469.93" rx="48.91" ry="52.82"/>
					<ellipse class="st5" cx="639.85" cy="469.93" rx="19.21" ry="21.01"/>
				</g>
			</g>
		</g>
		<g>
			<path class="st4" d="M877.52,498.79c0,29.43-19.51,54.31-46.31,62.35c2.44-16.03,3.71-32.44,3.71-49.13
				c0-26.52-3.2-52.33-9.26-76.97C855.28,441.14,877.52,467.38,877.52,498.79z"/>
			<path class="st5" d="M189.08,512c0,16.69,1.27,33.1,3.71,49.13c-26.8-8.04-46.31-32.91-46.31-62.35
				c0-31.41,22.24-57.64,51.86-63.76C192.28,459.67,189.08,485.48,189.08,512z"/>
		</g>
		
			<linearGradient id="SVGID_00000157998178782392442050000007585947635219592846_" gradientUnits="userSpaceOnUse" x1="512" y1="276.1031" x2="512" y2="867.517">
			<stop  offset="0" style="stop-color:#FFBDA4"/>
			<stop  offset="1" style="stop-color:#FF7B99"/>
		</linearGradient>
		<path style="fill:url(#SVGID_00000157998178782392442050000007585947635219592846_);" d="M512,561.13
			c-59.67,0-108.04,48.37-108.04,108.04c0,59.67,48.37,108.04,108.04,108.04s108.04-48.37,108.04-108.04
			C620.04,609.5,571.67,561.13,512,561.13z M512,715.67c-25.68,0-46.49-20.81-46.49-46.49c0-25.68,20.81-46.49,46.49-46.49
			c25.68,0,46.49,20.81,46.49,46.49C558.49,694.86,537.68,715.67,512,715.67z"/>
	</g>
</g>
</svg>
